<svg xmlns="http://www.w3.org/2000/svg" viewBox="0 0 200 200" role="img" aria-label="โลโก้เครื่องช่วยฟังอัจฉริยะ">
  <defs>
    <linearGradient id="g" x1="0" x2="1">
      <stop offset="0" stop-color="#0f62fe"/>
      <stop offset="1" stop-color="#0ea5e9"/>
    </linearGradient>
  </defs>
  <rect width="200" height="200" rx="28" fill="url(#g)"/>
  <g fill="#fff" transform="translate(36,36) scale(0.85)">
    <path d="M50 30c-12 0-22 10-22 22v34c0 12 10 22 22 22h6v-17h-6c-3.3 0-6-2.7-6-6v-34c0-3.3 2.7-6 6-6h24v-17H50z"/>
    <path d="M114 60c0-16-13-29-29-29h-6v17h6c6 0 11 5 11 12v34c0 6-5 11-11 11h-6v17h6c16 0 29-13 29-29V60z"/>
  </g>
</svg>